<mxfile host="app.diagrams.net" agent="Mozilla/5.0 (Windows NT 10.0; Win64; x64) AppleWebKit/537.36 (KHTML, like Gecko) Chrome/132.0.0.0 Safari/537.36" version="24.8.4">
  <diagram name="Page-1" id="wS429YDWmbBYox7M_6QV">
    <mxGraphModel dx="2074" dy="1132" grid="1" gridSize="10" guides="1" tooltips="1" connect="1" arrows="1" fold="1" page="1" pageScale="1" pageWidth="1169" pageHeight="827" math="0" shadow="0">
      <root>
        <mxCell id="0" />
        <mxCell id="1" parent="0" />
        <mxCell id="AzPNCQ3yJUDIUclCNpcj-17" value="47 COUNTRIES COLLECT AND SHIP SAMPLES TO 15 ES LABS IN THE REGION" style="rounded=0;whiteSpace=wrap;html=1;fontStyle=1;fontSize=18;" vertex="1" parent="1">
          <mxGeometry x="21" y="60" width="150" height="140" as="geometry" />
        </mxCell>
        <mxCell id="AzPNCQ3yJUDIUclCNpcj-21" style="edgeStyle=orthogonalEdgeStyle;rounded=0;orthogonalLoop=1;jettySize=auto;html=1;exitX=0.5;exitY=1;exitDx=0;exitDy=0;entryX=0.5;entryY=1;entryDx=0;entryDy=0;" edge="1" parent="1" source="AzPNCQ3yJUDIUclCNpcj-18" target="AzPNCQ3yJUDIUclCNpcj-17">
          <mxGeometry relative="1" as="geometry" />
        </mxCell>
        <mxCell id="AzPNCQ3yJUDIUclCNpcj-22" style="edgeStyle=orthogonalEdgeStyle;rounded=0;orthogonalLoop=1;jettySize=auto;html=1;exitX=0.5;exitY=0;exitDx=0;exitDy=0;entryX=0.5;entryY=0;entryDx=0;entryDy=0;" edge="1" parent="1" source="AzPNCQ3yJUDIUclCNpcj-18" target="AzPNCQ3yJUDIUclCNpcj-19">
          <mxGeometry relative="1" as="geometry" />
        </mxCell>
        <mxCell id="AzPNCQ3yJUDIUclCNpcj-18" value="15 LABS PROCESS THE ES SAMPLES AND MANAGES THE DATA IN EPI INFO THEN SHARE THE DATABASE WITH AFRO AND COUNTRIES" style="rounded=0;whiteSpace=wrap;html=1;fontStyle=1;fontSize=18;" vertex="1" parent="1">
          <mxGeometry x="240" y="60" width="250" height="140" as="geometry" />
        </mxCell>
        <mxCell id="AzPNCQ3yJUDIUclCNpcj-23" style="edgeStyle=orthogonalEdgeStyle;rounded=0;orthogonalLoop=1;jettySize=auto;html=1;exitX=0.25;exitY=1;exitDx=0;exitDy=0;entryX=0.5;entryY=1;entryDx=0;entryDy=0;" edge="1" parent="1" source="AzPNCQ3yJUDIUclCNpcj-19" target="AzPNCQ3yJUDIUclCNpcj-17">
          <mxGeometry relative="1" as="geometry" />
        </mxCell>
        <mxCell id="AzPNCQ3yJUDIUclCNpcj-19" value="AFRO COMPILES THE 16 DABASES INTO ONE AND SHARE WITH THE COUNTRIES, HQ AND PARTNERS" style="rounded=0;whiteSpace=wrap;html=1;fontStyle=1;fontSize=18;" vertex="1" parent="1">
          <mxGeometry x="540" y="60" width="240" height="140" as="geometry" />
        </mxCell>
        <mxCell id="AzPNCQ3yJUDIUclCNpcj-20" value="" style="rounded=0;whiteSpace=wrap;html=1;" vertex="1" parent="1">
          <mxGeometry x="900" y="40" width="240" height="720" as="geometry" />
        </mxCell>
      </root>
    </mxGraphModel>
  </diagram>
</mxfile>
